<svg id="Layer_1" data-name="Layer 1" xmlns="http://www.w3.org/2000/svg" viewBox="0 0 114.81 110.43"><defs><style>.cls-1{fill:#046db2;}</style></defs><title>exchange_square</title><path class="cls-1" d="M64.52,110.52.35,99.06V11.55L64.52.1ZM28.86,57.3H41.19V48.23c-.82,0-1.54-.1-2.27-.12C36,48,33,48,30.11,47.91c-1,0-1.42-.22-1.37-1.35.09-2.25,0-4.51,0-6.77A5.14,5.14,0,0,1,29,37.25H43.78V28.06L19.09,29.75v46.1l24.24,2.76V68.85L28.86,67.64Z" transform="translate(-0.35 -0.1)"/><path class="cls-1" d="M70.47,88.8v-8c3,.31,4.46-1.89,6-3.85,4-5,7.92-10.19,10.69-16.05-.28-.53-.59-.93-1-1-2.57,2.5-5.09,4.93-7.59,7.4C76.69,69.08,74.84,71,73,72.84a2.33,2.33,0,0,1-2.51.75V57.49c1.82,1,3.5,1.93,5.2,2.84,1.19.63,1.23.6,2.14-.65-2.17-2.18-4.33-4.37-6.52-6.54a2.34,2.34,0,0,1-.92-1.73c0-4.52,0-9,0-13.75,1.33,0,2.63-.53,3.77.45,1,.81,1.83,1.7,2.81,2.61a21,21,0,0,0,2.49-3.3c.42-.57.09-1-.32-1.36-1.72-1.61-3.45-3.23-5.16-4.85-1-.95-2.34-.27-3.53-.72V22.66c.53-.47,1.14-.29,1.69-.29q18.52,0,37.05,0c4.16,0,5.93,1.81,5.93,5.95V82.39c0,4.78-1.66,6.42-6.44,6.42H70.47Zm29.54-15c-2,0-3.69,0-5.52,0-2.88,0-7.35-3-7.57-3.16l-2.21,2.88c-.61.73-.39,1.3.26,1.88,1.55,1.41,3.09,2.83,4.59,4.3a3.23,3.23,0,0,0,2.38,1c4.2,0,8.41,0,12.61,0,2,0,2.4-.51,2.4-2.45,0-3.83-.07-7.67,0-11.5a4.5,4.5,0,0,0-1.67-3.86A95.67,95.67,0,0,0,88.35,51c-1-.54-1.77-.6-2.35.94A15.44,15.44,0,0,1,87.37,53q5.79,5.67,11.55,11.38c.47.47,1.08.89,1.09,1.66C100,68.51,100,71,100,73.79ZM97,50.88c1,.71,2,1.39,2.94,2.12.7.54,1.21.34,1.75-.25,1.52-1.66,3.07-3.3,4.62-4.94a2.52,2.52,0,0,0,.63-1.87q0-6.63,0-13.24c0-1.36-.59-2-2-2H92.22a3.06,3.06,0,0,0-2.36,1.06A87,87,0,0,0,77.23,49.5c-.54,1-.33,1.65.47,1.9,3.91-3.78,7.81-7.31,11.39-11.13a7.8,7.8,0,0,1,6.72-2.74c4.2.23,4.1.06,4.25,4.34.12,3.31.2,6.5-3,8.64C97.07,50.54,97.07,50.61,97,50.88Z" transform="translate(-0.35 -0.1)"/></svg>