<svg id="Layer_1" data-name="Layer 1" xmlns="http://www.w3.org/2000/svg" viewBox="0 0 506.98 110.83"><defs><style>.cls-1{fill:#046db2;}.cls-2{fill:#336380;}.cls-3{fill:#1d6390;}</style></defs><title>exchange</title><path class="cls-1" d="M64.52,110.52.35,99.06V11.55L64.52.1ZM28.86,57.3H41.19V48.23c-.82,0-1.54-.1-2.27-.12C36,48,33,48,30.11,47.91c-1,0-1.42-.22-1.37-1.35.09-2.25,0-4.51,0-6.77A5.14,5.14,0,0,1,29,37.25H43.78V28.06L19.09,29.75v46.1l24.24,2.76V68.85L28.86,67.64Z" transform="translate(-0.35 -0.1)"/><path class="cls-1" d="M70.47,88.8v-8c3,.31,4.46-1.89,6-3.85,4-5,7.92-10.19,10.69-16.05-.28-.53-.59-.93-1-1-2.57,2.5-5.09,4.93-7.59,7.4C76.69,69.08,74.84,71,73,72.84a2.33,2.33,0,0,1-2.51.75V57.49c1.82,1,3.5,1.93,5.2,2.84,1.19.63,1.23.6,2.14-.65-2.17-2.18-4.33-4.37-6.52-6.54a2.34,2.34,0,0,1-.92-1.73c0-4.52,0-9,0-13.75,1.33,0,2.63-.53,3.77.45,1,.81,1.83,1.7,2.81,2.61a21,21,0,0,0,2.49-3.3c.42-.57.09-1-.32-1.36-1.72-1.61-3.45-3.23-5.16-4.85-1-.95-2.34-.27-3.53-.72V22.66c.53-.47,1.14-.29,1.69-.29q18.52,0,37.05,0c4.16,0,5.93,1.81,5.93,5.95V82.39c0,4.78-1.66,6.42-6.44,6.42H70.47Zm29.54-15c-2,0-3.69,0-5.52,0-2.88,0-7.35-3-7.57-3.16l-2.21,2.88c-.61.73-.39,1.3.26,1.88,1.55,1.41,3.09,2.83,4.59,4.3a3.23,3.23,0,0,0,2.38,1c4.2,0,8.41,0,12.61,0,2,0,2.4-.51,2.4-2.45,0-3.83-.07-7.67,0-11.5a4.5,4.5,0,0,0-1.67-3.86A95.67,95.67,0,0,0,88.35,51c-1-.54-1.77-.6-2.35.94A15.44,15.44,0,0,1,87.37,53q5.79,5.67,11.55,11.38c.47.47,1.08.89,1.09,1.66C100,68.51,100,71,100,73.79ZM97,50.88c1,.71,2,1.39,2.94,2.12.7.54,1.21.34,1.75-.25,1.52-1.66,3.07-3.3,4.62-4.94a2.52,2.52,0,0,0,.63-1.87q0-6.63,0-13.24c0-1.36-.59-2-2-2H92.22a3.06,3.06,0,0,0-2.36,1.06A87,87,0,0,0,77.23,49.5c-.54,1-.33,1.65.47,1.9,3.91-3.78,7.81-7.31,11.39-11.13a7.8,7.8,0,0,1,6.72-2.74c4.2.23,4.1.06,4.25,4.34.12,3.31.2,6.5-3,8.64C97.07,50.54,97.07,50.61,97,50.88Z" transform="translate(-0.35 -0.1)"/><path class="cls-1" d="M449.33,47.41V41.5h7.45c.4.51.21,1.17.21,1.77q0,20.42,0,40.82a39.09,39.09,0,0,1-1.65,12.43c-2.28,6.86-6.88,11.36-13.86,13.15A36.89,36.89,0,0,1,418,108.21a1.83,1.83,0,0,1-1.4-2.08c.12-2,0-3.95,0-6.17a52.55,52.55,0,0,0,8.19,3.38,25.78,25.78,0,0,0,12.61.44,13.7,13.7,0,0,0,10.81-9.89c1.29-4.18,1.09-8.46,1-13.17a20.62,20.62,0,0,1-6.17,6.41C435.3,92,421,91.18,415.83,78.66c-4.25-10.3-3.65-20.58,2.48-30.1,5.94-9.24,18.67-10.23,25.53-6.2A21.53,21.53,0,0,1,449.33,47.41Zm0,16.65c0-1.48,0-3,0-4.42a13.34,13.34,0,0,0-9.2-12.27c-6-1.78-12.21,0-15.29,5.06-4.74,7.82-5,16.07-1,24.32a11.35,11.35,0,0,0,6,5.52c8.45,3.44,17.48-1.84,19.15-11.14A40.79,40.79,0,0,0,449.3,64.06Z" transform="translate(-0.35 -0.1)"/><path class="cls-1" d="M151.65,81.52h27v7H143.8v-66h33.41v6.91H151.69v22h23.62v7.06H151.65Z" transform="translate(-0.35 -0.1)"/><path class="cls-1" d="M309.23,88.58h-7.65V86.77q0-12.84,0-25.69a23.4,23.4,0,0,0-1.16-7.75C297.81,46,290,45.53,285.27,48c-5.46,2.83-7.6,7.73-7.64,13.66,0,8.36,0,16.71,0,25.06v1.87H270V18.79h7.58V49c1-1.19,1.68-2.09,2.41-3,5.9-7.17,16.47-6.92,21.87-3.83,4,2.29,5.81,6,6.72,10.34a32.38,32.38,0,0,1,.65,6.89q0,13.62,0,27.26Z" transform="translate(-0.35 -0.1)"/><path class="cls-1" d="M474.11,66.87c0,10,5.43,16.73,16,16.41a22.81,22.81,0,0,0,12.77-4.39c.28-.2.51-.54,1.1-.46,0,2.12,0,4.25,0,6.38,0,.61-.53.85-1,1.14a24.06,24.06,0,0,1-10.79,3.6c-4.63.48-9.25.5-13.64-1.36a18.8,18.8,0,0,1-11.11-12.9c-2.42-8.68-2.1-17.15,2.63-25.09,7-11.67,21.57-12.21,29.2-6.7,4.76,3.43,6.79,8.37,7.7,13.93.5,3.08.26,6.18.32,9.44Zm25.29-6.63a11.72,11.72,0,0,0-.32-4c-.82-3.82-2.62-7-6.37-8.6-8.18-3.56-18.6,3.61-18.37,12.6C475.68,60.46,497.83,60.46,499.4,60.24Z" transform="translate(-0.35 -0.1)"/><path class="cls-1" d="M321.85,44.57c3.61-2.44,7.77-3.29,11.94-4.07a23.1,23.1,0,0,1,8.77.1c6.55,1.27,10.73,5.92,11.53,12.64a48.61,48.61,0,0,1,.3,5.65q0,14,0,28.05v1.65H346.8V81.66c-.74.23-.87.79-1.13,1.18-6.26,9.6-20.91,8.46-25.92,1.86-2.8-3.7-3.23-7.81-2.44-12.1,1.34-7.28,6.61-10.36,13.24-11.59,5.05-.94,10.16-1.51,15.25-2.24l.73-.12c.6-6.88-2.76-11.92-9.25-11.93a24.56,24.56,0,0,0-15,5.21c-.54-.44-.36-1-.37-1.6C321.87,48.41,321.86,46.49,321.85,44.57Zm24.81,20.24c-2.41.32-4.65.56-6.87.93-3.46.58-7,.77-10.31,2.07s-4.54,3.85-4.67,7.15a7.2,7.2,0,0,0,4,7.12c4.49,2.42,10.77,1.1,14.37-2.89S347,70.08,346.66,64.81Z" transform="translate(-0.35 -0.1)"/><path class="cls-1" d="M373.59,41.77v6.9l.31.14c.38-.51.75-1,1.12-1.54,5.14-7.1,15.39-9.35,22.78-5,4.33,2.56,6.1,6.74,7,11.41a25.52,25.52,0,0,1,.44,4.85q0,14.34,0,28.68c0,.41-.06.82-.09,1.34h-7.35a3.77,3.77,0,0,1-.2-1.94c0-9.19,0-18.38-.09-27.57a14,14,0,0,0-2.94-9c-3-3.69-9.35-4.53-13.84-1.85-4.93,2.93-7,7.53-7.08,13.07-.09,8.51,0,17,0,25.53a3.25,3.25,0,0,1-.2,1.77h-7.18c-.37-.31-.22-.76-.22-1.16q0-22.45,0-44.91c0-.26,0-.52,0-.78Z" transform="translate(-0.35 -0.1)"/><path class="cls-1" d="M182.92,41.38c2.68,0,5.34,0,8,0,.85,0,1,.72,1.27,1.23Q197.13,51.29,202,60l.71,1.15,5.06-8.49L214,42.27c.27-.46.49-.91,1.15-.9,2.45,0,4.91,0,7.37,0,.14.8-.36,1.2-.66,1.65-4.58,6.92-9.13,13.84-13.79,20.7a2.42,2.42,0,0,0,.1,3.26c4.69,6.84,9.26,13.76,13.87,20.65a10.79,10.79,0,0,1,.54,1.06h-8.14c-.88,0-1.07-.77-1.41-1.32-3.51-5.78-7-11.58-10.56-17.47a14.06,14.06,0,0,0-2.1,3q-4.51,7.3-9,14.64a1.77,1.77,0,0,1-1.69,1.12c-2.47,0-4.94,0-7.48,0,0-.75.47-1.17.81-1.65,4.72-6.82,9.42-13.65,14.19-20.44a1.76,1.76,0,0,0,0-2.34q-6.83-10.59-13.59-21.21A2.76,2.76,0,0,1,182.92,41.38Z" transform="translate(-0.35 -0.1)"/><path class="cls-1" d="M261.09,79.36c0,2.3,0,4.43,0,6.55,0,.77-.6.94-1.08,1.2a25.27,25.27,0,0,1-12.47,2.68c-13.49-.21-21.78-10.62-21.91-23-.06-5.68.8-11.12,3.92-16,5.57-8.64,13.85-11.35,23.66-10.55A24,24,0,0,1,259.92,42a1.69,1.69,0,0,1,1.29,1.85c-.07,2.08,0,4.18,0,6.5a40.73,40.73,0,0,0-5.2-2.55c-10.92-3.69-21.21,2.89-22.35,14.38-.51,5.21-.16,10.29,3,14.8,3.53,5.11,9.87,7.4,16.45,6a16,16,0,0,0,4.16-1.39C258.45,80.86,259.66,80.15,261.09,79.36Z" transform="translate(-0.35 -0.1)"/><path class="cls-2" d="M321.85,44.57c0,1.92,0,3.84,0,5.76,0,.55-.17,1.16.37,1.6l-.33.53C321.7,49.74,321.22,47.15,321.85,44.57Z" transform="translate(-0.35 -0.1)"/><path class="cls-3" d="M373.59,41.77l-7.5,0c.1-.56.56-.36.87-.37,1.92,0,3.84,0,5.77,0C373.05,41.38,373.5,41.21,373.59,41.77Z" transform="translate(-0.35 -0.1)"/></svg>