<?xml version="1.0" encoding="utf-8"?>
<!-- Generator: Adobe Illustrator 22.0.1, SVG Export Plug-In . SVG Version: 6.00 Build 0)  -->
<svg version="1.1" id="Layer_1" xmlns="http://www.w3.org/2000/svg" xmlns:xlink="http://www.w3.org/1999/xlink" x="0px" y="0px"
	 viewBox="0 0 75 32" style="enable-background:new 0 0 75 32;" xml:space="preserve">
<style type="text/css">
	.st0{fill:#FFFFFF;}
</style>
<g>
	<path class="st0" d="M0.9,0.7v30.5h2.2V32h-3V0h3v0.7H0.9z M9.4,10.4V12h0c0.4-0.6,0.9-1,1.5-1.4c0.6-0.3,1.2-0.5,2-0.5
		c0.7,0,1.4,0.1,2,0.4c0.6,0.3,1,0.8,1.4,1.5c0.3-0.5,0.8-0.9,1.4-1.3c0.6-0.4,1.3-0.6,2.1-0.6c0.6,0,1.2,0.1,1.7,0.2
		c0.5,0.1,1,0.4,1.3,0.7c0.4,0.3,0.7,0.7,0.9,1.3c0.2,0.5,0.3,1.1,0.3,1.9v7.6h-3.1v-6.5c0-0.4,0-0.7,0-1.1c0-0.3-0.1-0.6-0.2-0.9
		c-0.1-0.3-0.3-0.5-0.6-0.6c-0.3-0.1-0.6-0.2-1-0.2c-0.4,0-0.8,0.1-1.1,0.3c-0.3,0.2-0.5,0.4-0.6,0.7c-0.2,0.3-0.3,0.6-0.3,0.9
		c-0.1,0.3-0.1,0.7-0.1,1v6.4h-3.1v-6.4c0-0.3,0-0.7,0-1c0-0.3-0.1-0.6-0.2-0.9c-0.1-0.3-0.3-0.5-0.6-0.7c-0.3-0.2-0.6-0.3-1.1-0.3
		c-0.2,0-0.4,0-0.6,0.1c-0.3,0.1-0.5,0.2-0.7,0.4c-0.2,0.2-0.4,0.4-0.6,0.8c-0.2,0.3-0.2,0.8-0.2,1.4v6.6H6.4V10.4H9.4z M25.8,12.1
		c0.3-0.5,0.7-0.9,1.2-1.2c0.5-0.3,1.1-0.5,1.7-0.6c0.6-0.1,1.3-0.2,1.9-0.2c0.6,0,1.2,0,1.7,0.1c0.6,0.1,1.1,0.2,1.6,0.5
		c0.5,0.2,0.9,0.6,1.2,1c0.3,0.4,0.5,1,0.5,1.7v5.9c0,0.5,0,1,0.1,1.5c0.1,0.5,0.2,0.8,0.3,1.1h-3.2c-0.1-0.4-0.2-0.7-0.2-1.1
		c-0.5,0.5-1.1,0.9-1.8,1.1c-0.7,0.2-1.4,0.3-2.1,0.3c-0.5,0-1-0.1-1.5-0.2c-0.4-0.1-0.9-0.3-1.2-0.6c-0.4-0.3-0.6-0.6-0.8-1.1
		c-0.2-0.4-0.3-0.9-0.3-1.5c0-0.6,0.1-1.2,0.3-1.6c0.2-0.4,0.5-0.8,0.9-1c0.4-0.2,0.8-0.4,1.2-0.6c0.5-0.1,0.9-0.2,1.4-0.3
		c0.5-0.1,0.9-0.1,1.4-0.2c0.5,0,0.9-0.1,1.2-0.2c0.4-0.1,0.6-0.2,0.8-0.4s0.3-0.4,0.3-0.7c0-0.3-0.1-0.6-0.2-0.8
		c-0.1-0.2-0.3-0.4-0.4-0.5c-0.2-0.1-0.4-0.2-0.6-0.2c-0.3,0-0.5-0.1-0.8-0.1c-0.6,0-1.1,0.1-1.5,0.4c-0.4,0.3-0.6,0.7-0.6,1.3h-3.1
		C25.3,13.2,25.5,12.6,25.8,12.1z M32,16.5c-0.2,0.1-0.4,0.1-0.6,0.2c-0.2,0-0.5,0.1-0.7,0.1c-0.2,0-0.5,0.1-0.7,0.1
		c-0.2,0-0.5,0.1-0.7,0.2c-0.2,0.1-0.4,0.2-0.6,0.3c-0.2,0.1-0.3,0.3-0.4,0.5c-0.1,0.2-0.2,0.4-0.2,0.7c0,0.3,0.1,0.5,0.2,0.7
		c0.1,0.2,0.2,0.3,0.4,0.5c0.2,0.1,0.4,0.2,0.6,0.2c0.2,0,0.5,0.1,0.7,0.1c0.6,0,1.1-0.1,1.4-0.3c0.3-0.2,0.6-0.5,0.8-0.7
		c0.2-0.3,0.3-0.6,0.3-0.9c0-0.3,0.1-0.5,0.1-0.7v-1.2C32.4,16.4,32.2,16.4,32,16.5z M43.9,10.4v2.1h-2.3v5.6c0,0.5,0.1,0.9,0.3,1.1
		c0.2,0.2,0.5,0.3,1.1,0.3c0.2,0,0.3,0,0.5,0c0.2,0,0.3,0,0.5-0.1v2.4c-0.3,0-0.6,0.1-0.9,0.1c-0.3,0-0.6,0-0.9,0
		c-0.5,0-0.9,0-1.4-0.1c-0.4-0.1-0.8-0.2-1.1-0.4c-0.3-0.2-0.6-0.5-0.8-0.8c-0.2-0.4-0.3-0.8-0.3-1.4v-6.7h-1.9v-2.1h1.9V7h3.1v3.4
		L43.9,10.4L43.9,10.4z M48.4,10.4v2.1h0c0.3-0.7,0.8-1.3,1.5-1.8c0.3-0.2,0.7-0.4,1-0.5c0.4-0.1,0.8-0.2,1.1-0.2
		c0.2,0,0.4,0,0.7,0.1v2.9c-0.2,0-0.4-0.1-0.5-0.1c-0.2,0-0.4,0-0.6,0c-0.6,0-1.1,0.1-1.5,0.3c-0.4,0.2-0.7,0.4-1,0.8
		c-0.2,0.3-0.4,0.7-0.5,1.2c-0.1,0.5-0.2,1-0.2,1.4v5.1h-3.1V10.4C45.4,10.4,48.4,10.4,48.4,10.4z M54,8.6V6.1h3.1v2.6H54L54,8.6z
		 M57.2,10.4v11.4H54V10.4L57.2,10.4L57.2,10.4z M58.8,10.4h3.6l2,3l2-3h3.5l-3.7,5.3l4.2,6.1h-3.6l-2.4-3.6l-2.4,3.6h-3.5l4.1-6
		L58.8,10.4z M74.1,31.2V0.7h-2.2V0h3v32h-3v-0.7H74.1z"/>
</g>
</svg>
