<?xml version="1.0" encoding="UTF-8"?>
<svg width="24px" height="12px" viewBox="0 0 24 12" version="1.1" xmlns="http://www.w3.org/2000/svg" xmlns:xlink="http://www.w3.org/1999/xlink">
    <!-- Generator: Sketch 50.2 (55047) - http://www.bohemiancoding.com/sketch -->
    <title>icon/panther</title>
    <desc>Created with Sketch.</desc>
    <defs>
        <path d="M7.99836259,12.4201197 L1.86100394,16.5048351 L0.934554572,16.5393737 L8.8817842e-15,15.5063549 L0.346804482,13.5753319 L2.74815535,13.0203591 L3.17723993,13.473286 L2.40675434,13.6540905 L0.779082024,14.1093723 L0.522171622,15.3870397 L1.20767538,15.8431065 L2.40724556,15.4778344 L7.97674871,11.4616729 L9.86182265,10.9137648 L12.9464668,10.3661183 L15.9453922,9.21038274 L16.7168603,8.60203201 L17.4875915,8.60203201 L18.0876222,8.18312039 L18.5162155,8.08813918 L18.9445633,7.44708142 L19.4586297,7.35471677 L19.5441027,6.78273626 L19.8012588,7.03209464 L20.6584455,7.03209464 L20.8298828,6.77043841 L21.6008596,6.77043841 L22.2006447,6.48 L22.4578007,6.50878219 L22.7147111,6.50878219 L22.8861485,6.77043841 L23.485688,6.77043841 L23.6576165,6.94810299 L24,7.25162422 L23.9140357,7.5554071 L23.8288083,7.5554071 L23.6576165,8.10148365 L23.5716523,8.60203201 L23.485688,8.60203201 L23.4004605,8.34037578 L22.8001842,8.34037578 L22.3738014,8.63159916 L22.3738014,9.90978984 L22.9082536,9.75488935 L22.2861178,10.6952818 L21.6863327,10.6952818 L21.3913524,10.5484927 L21.3913524,9.90978984 L20.3605178,9.08818928 L19.9525559,8.26658873 L20.2195364,9.17950731 L21.3387914,10.0008462 L21.2557744,10.2750619 L20.8284091,10.3661183 L20.9148647,12.1006374 L20.4870081,12.7396019 L20.8907947,14.200167 L21.6369646,15.2038803 L21.6369646,15.7517884 L22.7115182,16.7560251 L23.4842143,16.6644454 L23.8278258,17.1212971 L23.6568797,17.76 L22.2003991,17.668682 L18.4304969,13.9262129 L15.7742005,14.1091106 L14.4889116,13.5609408 L12.6895564,13.3783048 L10.7187638,13.9262129 L9.17631889,15.2951983 L6.43454946,15.9339012 L6.0059561,16.6644454 L6.52026813,17.1212971 L6.34883078,17.5776256 L5.23497928,17.76 L4.89210459,17.4860459 L5.32045234,15.3865164 L6.52026813,14.8391315 L7.80555698,13.5609408 L8.83368981,12.0090578 L9.69063092,11.3700932 L8.66225247,11.9180014 L8.40534207,12.2830118 L7.99836259,12.4201197 Z M11.4686179,14.0400334 L12.6856266,13.5609408 L13.1960088,13.7435769 L13.3600778,14.8391315 L12.5743642,16.0254809 L13.1434478,16.8473431 L13.5116205,16.6644454 L13.777373,16.8473431 L13.777373,17.4983438 L12.6895564,17.4983438 L11.4845827,16.1746249 L11.907527,14.5994544 L11.4686179,14.0400334 Z M15.9453922,14.4055672 L17.5733101,14.2114182 L17.0594893,15.5749088 L17.2309267,16.6675852 L17.7449931,16.7573333 L18.0021491,17.1733667 L17.916676,17.4983438 L16.5454229,17.4983438 L16.1170752,16.1455811 L15.9453922,14.4055672 Z" id="path-1"></path>
    </defs>
    <g id="Page-1" stroke="none" stroke-width="1" fill="none" fill-rule="evenodd">
        <g id="desktop-accounts" transform="translate(-1622.000000, -274.000000)">
            <g id="system" transform="translate(1392.000000, 24.000000)">
                <g id="icon/panther" transform="translate(230.000000, 244.000000)">
                    <mask id="mask-2" fill="white">
                        <use xlink:href="#path-1"></use>
                    </mask>
                    <use id="Mask" fill="#FFFFFF" fill-rule="evenodd" xlink:href="#path-1"></use>
                    <g id="@white" mask="url(#mask-2)" fill="#FFFFFF" fill-rule="evenodd">
                        <rect id="Rectangle" x="0" y="0" width="24" height="24"></rect>
                    </g>
                </g>
            </g>
        </g>
    </g>
</svg>