<?xml version="1.0" encoding="UTF-8"?>
<svg width="250px" height="250px" viewBox="0 0 250 250" version="1.1" xmlns="http://www.w3.org/2000/svg" xmlns:xlink="http://www.w3.org/1999/xlink">
    <!-- Generator: Sketch 50.2 (55047) - http://www.bohemiancoding.com/sketch -->
    <title>icon_cirle_checkmark</title>
    <desc>Created with Sketch.</desc>
    <defs></defs>
    <g id="icon_cirle_checkmark" stroke="none" stroke-width="1" fill="none" fill-rule="evenodd">
        <path d="M104.776814,178.765282 C105.369201,178.466058 105.924861,178.069138 106.419648,177.574353 L194.798932,89.1950673 C197.300738,86.6932628 197.308942,82.6305417 194.808194,80.1297949 L190.265998,75.5875994 C187.773781,73.0953814 183.706588,73.0909968 181.200725,75.596859 L101.877568,154.920016 L66.7611417,119.80359 C64.2435218,117.285971 60.1938298,117.290795 57.6930811,119.791542 L53.1508862,124.333737 C50.6586689,126.825955 50.6555314,130.894394 53.1629343,133.401798 L97.3327006,177.571564 C99.3573744,179.596237 102.3729,179.989548 104.776814,178.765282 Z M0,125 C0,55.9644071 55.9492272,0 125,0 C194.035594,0 250,55.9492276 250,125 C250,194.035593 194.050773,250 125,250 C55.9644064,250 0,194.050772 0,125 Z" id="Shape" fill="#00855D" fill-rule="nonzero"></path>
    </g>
</svg>