<?xml version="1.0" encoding="UTF-8"?>
<svg width="250px" height="250px" viewBox="0 0 250 250" version="1.1" xmlns="http://www.w3.org/2000/svg" xmlns:xlink="http://www.w3.org/1999/xlink">
    <!-- Generator: Sketch 50.2 (55047) - http://www.bohemiancoding.com/sketch -->
    <title>icon_circle_cross</title>
    <desc>Created with Sketch.</desc>
    <defs></defs>
    <g id="icon_circle_cross" stroke="none" stroke-width="1" fill="none" fill-rule="evenodd">
        <path d="M125,0 C55.9547244,0 0,55.9547244 0,125 C0,194.045276 55.9547244,250 125,250 C194.045276,250 250,194.045276 250,125 C250,55.9547244 194.045276,0 125,0 Z M183.858268,166.141732 C188.730315,171.01378 188.730315,178.937008 183.858268,183.809055 C178.887795,188.779528 172.933071,190.551181 166.190945,183.809055 L125,142.667323 L83.8582677,183.809055 C78.1496063,189.517717 69.8818898,187.5 66.1909449,183.809055 C61.3188976,178.937008 61.3188976,171.01378 66.1909449,166.141732 L107.332677,125 L66.1909449,83.8582677 C61.3188976,78.9862205 61.3188976,71.0629921 66.1909449,66.1909449 C71.0629921,61.3188976 78.9862205,61.3188976 83.8582677,66.1909449 L125,107.332677 L166.141732,66.1909449 C171.01378,61.3188976 178.937008,61.3188976 183.809055,66.1909449 C188.681102,71.0629921 188.681102,78.9862205 183.809055,83.8582677 L142.667323,125 L183.858268,166.141732 Z" id="Shape" fill="#CBCBCB" fill-rule="nonzero"></path>
    </g>
</svg>