<?xml version="1.0" encoding="UTF-8"?>
<svg width="172px" height="80px" viewBox="0 0 172 80" version="1.1" xmlns="http://www.w3.org/2000/svg" xmlns:xlink="http://www.w3.org/1999/xlink">
    <!-- Generator: Sketch 50.2 (55047) - http://www.bohemiancoding.com/sketch -->
    <title>Group</title>
    <desc>Created with Sketch.</desc>
    <defs></defs>
    <g id="Page-1" stroke="none" stroke-width="1" fill="none" fill-rule="evenodd">
        <g id="pantherx-os" transform="translate(-255.000000, -245.000000)" fill="#FFFFFF">
            <g id="Group-2" transform="translate(255.000000, 215.000000)">
                <g id="Group" transform="translate(0.000000, 30.000000)">
                    <polygon id="Shape" points="57.3215985 42.1285085 13.3371949 71.0981211 6.6976411 71.3430759 0 64.0167015 2.48543212 50.3215031 19.6951133 46.3855254 22.7702195 49.5977731 17.2484061 50.8800742 5.58342117 54.1090234 3.74222995 63.1704941 8.65500691 66.4050104 17.2519265 63.8144282 57.1666991 35.3310137 70.6763956 31.4451403 92.7830118 27.5611227 114.275311 19.3644166 119.804165 15.0498724 125.327739 15.0498724 129.627959 12.078868 132.699545 11.4052424 135.76937 6.85873347 139.453513 6.20366504 140.06607 2.14706565 141.909021 3.91556483 148.052193 3.91556483 149.280827 2.0598469 154.806161 2.0598469 159.104621 0 160.947572 0.204128972 162.788763 0.204128972 164.017398 2.0598469 168.314097 2.0598469 169.546252 3.31987938 172 5.47251218 171.383923 7.6270007 170.773126 7.6270007 169.546252 11.499884 168.930174 15.0498724 168.314097 15.0498724 167.7033 13.1941545 163.40132 13.1941545 160.345576 15.2595685 160.345576 24.3247506 164.175817 23.2261656 159.717178 29.8956159 155.418718 29.8956159 153.304692 28.8545581 153.304692 24.3247506 145.917044 18.4977963 142.993317 12.670842 144.906678 19.1454419 152.928005 24.9705405 152.33305 26.9153329 149.270266 27.5611227 149.889863 39.8626769 146.823558 44.3943401 149.717362 54.7529576 155.064913 61.8714915 155.064913 65.7573649 162.76588 72.8796103 168.303536 72.230109 170.766085 75.4701925 169.540971 80 159.10286 79.3523544 132.085227 52.8100209 113.048437 54.1071677 103.8372 50.2194386 90.9418206 48.9241475 76.8178069 52.8100209 65.7636187 62.5191371 46.1142711 67.0489446 43.0426854 72.230109 46.7285882 75.4701925 45.4999539 78.7065646 37.5173515 80 35.0600829 78.0570633 38.1299084 63.1667826 46.7285882 59.2846207 55.939825 50.2194386 63.3081103 39.2131756 69.4495216 34.6815124 62.079476 38.5673858 60.2382848 41.1561123"></polygon>
                    <polygon id="Shape" points="82 53.4069644 85.2318085 57.3851675 82.1175532 68.586656 90.9901064 78 99 78 99 73.3705476 97.0431915 72.0699096 94.332234 73.3705476 90.1419149 67.52605 95.9273404 59.08958 94.7192553 51.2987772 90.9611702 50"></polygon>
                    <polygon id="Shape" points="116 55.3585416 126.289467 54 123.041796 63.5409171 124.125388 71.1868333 127.374612 71.8148384 129 74.725999 128.459756 77 119.792572 77 117.085144 67.5341506"></polygon>
                </g>
            </g>
        </g>
    </g>
</svg>