<?xml version="1.0" encoding="UTF-8"?>
<svg width="265px" height="279px" viewBox="0 0 265 279" version="1.1" xmlns="http://www.w3.org/2000/svg" xmlns:xlink="http://www.w3.org/1999/xlink">
    <!-- Generator: Sketch 50.2 (55047) - http://www.bohemiancoding.com/sketch -->
    <title>chaichan</title>
    <desc>Created with Sketch.</desc>
    <defs>
        <path d="M124,144.610951 L124,163 L128,163 C167.764502,163 200,195.235498 200,235 L200,244 L0,244 L0,235 C-4.86974701e-15,195.235498 32.235498,163 72,163 L76,163 L76,144.610951 C58.7626345,136.422372 46.3722246,119.687011 44.3051388,99.8812385 C38.4803105,99.0577866 34,94.0521096 34,88 L34,74 C34,68.0540074 38.3245733,63.1180731 44,62.1659169 L44,56 C44,25.072054 69.072054,5.68137151e-15 100,0 C130.927946,-5.68137151e-15 156,25.072054 156,56 L156,62.1659169 C161.675427,63.1180731 166,68.0540074 166,74 L166,88 C166,94.0521096 161.51969,99.0577866 155.694861,99.8812385 C153.627775,119.687011 141.237365,136.422372 124,144.610951 Z" id="path-1"></path>
        <path d="M124,144.610951 L124,163 L128,163 C167.764502,163 200,195.235498 200,235 L200,244 L0,244 L0,235 C-4.86974701e-15,195.235498 32.235498,163 72,163 L76,163 L76,144.610951 C58.7626345,136.422372 46.3722246,119.687011 44.3051388,99.8812385 C38.4803105,99.0577866 34,94.0521096 34,88 L34,74 C34,68.0540074 38.3245733,63.1180731 44,62.1659169 L44,56 C44,25.072054 69.072054,5.68137151e-15 100,0 C130.927946,-5.68137151e-15 156,25.072054 156,56 L156,62.1659169 C161.675427,63.1180731 166,68.0540074 166,74 L166,88 C166,94.0521096 161.51969,99.0577866 155.694861,99.8812385 C153.627775,119.687011 141.237365,136.422372 124,144.610951 Z" id="path-3"></path>
        <path d="M133.960472,0.294916112 C170.936473,3.32499816 200,34.2942856 200,72.0517235 L200,81 L0,81 L0,72.0517235 C1.22536245e-14,33.9525631 29.591985,2.76498122 67.0454063,0.219526408 C67.0152598,0.593114549 67,0.969227185 67,1.34762511 C67,13.2107177 81.9984609,22.8276544 100.5,22.8276544 C119.001539,22.8276544 134,13.2107177 134,1.34762511 C134,0.994669088 133.986723,0.64370138 133.960472,0.294916112 Z" id="path-5"></path>
        <path d="M133.960472,0.294916112 C170.936473,3.32499816 200,34.2942856 200,72.0517235 L200,81 L0,81 L0,72.0517235 C1.22536245e-14,33.9525631 29.591985,2.76498122 67.0454063,0.219526408 C67.0152598,0.593114549 67,0.969227185 67,1.34762511 C67,13.2107177 81.9984609,22.8276544 100.5,22.8276544 C119.001539,22.8276544 134,13.2107177 134,1.34762511 C134,0.994669088 133.986723,0.64370138 133.960472,0.294916112 Z" id="path-7"></path>
        <rect id="path-9" x="0" y="0" width="264" height="280"></rect>
        <path d="M93.308863,9.006118 C73.121091,-2.6934891 53.128954,-0.7780146 38.036894,3.0299707 C22.9448338,6.8379559 14.0168242,17.6513048 6.3566792,33.6480618 C2.5956048,41.5028569 0.3660182,50.7914798 0.0230569,59.4813651 C-0.1115571,62.8932666 0.3484305,66.415154 1.267729,69.7003546 C1.6049405,70.9061873 3.4232441,75.086987 3.9224658,71.70885 C4.0885348,70.584253 3.4804043,69.0327505 3.4215529,67.8376154 C3.3444374,66.2693977 3.4273028,64.6807875 3.5341822,63.1149098 C3.7340739,60.1874141 4.2559568,57.3154127 5.1847257,54.524647 C6.5119249,50.5367405 8.2013644,46.212859 10.7874413,42.8480942 C17.1883705,34.5205939 28.268658,34.045883 37.066257,29.4635848 C36.302881,30.8686624 33.359637,33.1432635 34.379389,34.7268592 C35.083576,35.8207003 37.749474,35.4890712 39.022219,35.4539693 C42.370996,35.3623702 45.734993,34.7796791 49.042844,34.306974 C54.255923,33.5618115 59.140585,32.0517626 64.046555,30.2181078 C68.06299,28.7164165 72.650012,27.3257139 75.66868,24.1404701 C80.539813,29.1881187 86.809849,33.9345599 93.070414,37.1428706 C98.68835,40.0222267 107.748751,41.461069 111.182761,47.3006826 C115.2479,54.2147477 113.37751,62.7073939 114.619138,70.2008069 C115.091302,73.05041 116.164155,72.986558 116.751315,70.4378281 C117.748406,66.1082634 118.219217,61.6102098 117.901961,57.1592929 C117.183568,47.1114668 113.496636,20.7057251 93.308863,9.006118 Z" id="path-11"></path>
    </defs>
    <g id="chaichan" stroke="none" stroke-width="1" fill="none" fill-rule="evenodd">
        <g>
            <g id="Body" transform="translate(32.000000, 36.000000)">
                <g id="path-5-link" fill="#D0C6AC" fill-rule="nonzero">
                    <path d="M124,144.610951 L124,163 L128,163 C167.764502,163 200,195.235498 200,235 L200,244 L0,244 L0,235 C-4.86974701e-15,195.235498 32.235498,163 72,163 L76,163 L76,144.610951 C58.7626345,136.422372 46.3722246,119.687011 44.3051388,99.8812385 C38.4803105,99.0577866 34,94.0521096 34,88 L34,74 C34,68.0540074 38.3245733,63.1180731 44,62.1659169 L44,56 C44,25.072054 69.072054,5.68137151e-15 100,0 C130.927946,-5.68137151e-15 156,25.072054 156,56 L156,62.1659169 C161.675427,63.1180731 166,68.0540074 166,74 L166,88 C166,94.0521096 161.51969,99.0577866 155.694861,99.8812385 C153.627775,119.687011 141.237365,136.422372 124,144.610951 Z" id="path-5"></path>
                </g>
                <g id="Skin/ðŸ‘¶ðŸ½-03-Brown-Clipped">
                    <mask id="mask-2" fill="white">
                        <use xlink:href="#path-1"></use>
                    </mask>
                    <g id="path-5"></g>
                    <g id="Skin/ðŸ‘¶ðŸ½-03-Brown" mask="url(#mask-2)">
                        <g transform="translate(-32.000000, 0.000000)" id="Color">
                            <g>
                                <rect id="Rectangle-path" fill="#EDB98A" fill-rule="nonzero" x="0" y="0" width="264" height="244"></rect>
                            </g>
                        </g>
                    </g>
                </g>
                <g id="Neck-Shadow-Clipped">
                    <mask id="mask-4" fill="white">
                        <use xlink:href="#path-3"></use>
                    </mask>
                    <g id="path-5"></g>
                    <path d="M156,79 L156,102 C156,132.927946 130.927946,158 100,158 C69.072054,158 44,132.927946 44,102 L44,79 L44,94 C44,124.927946 69.072054,150 100,150 C130.927946,150 156,124.927946 156,94 L156,79 Z" id="Neck-Shadow" fill-opacity="0.100000001" fill="#000000" fill-rule="nonzero" mask="url(#mask-4)"></path>
                </g>
            </g>
            <g id="Clothing/Blazer-+-Shirt" transform="translate(32.000000, 198.000000)">
                <g id="Shirt" transform="translate(0.000000, 1.000000)">
                    <g id="Clothes" fill="#E6E6E6" fill-rule="nonzero">
                        <path d="M133.960472,0.294916112 C170.936473,3.32499816 200,34.2942856 200,72.0517235 L200,81 L0,81 L0,72.0517235 C1.22536245e-14,33.9525631 29.591985,2.76498122 67.0454063,0.219526408 C67.0152598,0.593114549 67,0.969227185 67,1.34762511 C67,13.2107177 81.9984609,22.8276544 100.5,22.8276544 C119.001539,22.8276544 134,13.2107177 134,1.34762511 C134,0.994669088 133.986723,0.64370138 133.960472,0.294916112 Z" id="react-path-193"></path>
                    </g>
                    <g id="Color/Palette/Black-Clipped">
                        <mask id="mask-6" fill="white">
                            <use xlink:href="#path-5"></use>
                        </mask>
                        <g id="react-path-193"></g>
                        <g id="Color/Palette/Black" mask="url(#mask-6)">
                            <g transform="translate(-32.000000, -29.000000)" id="ðŸ–Color">
                                <g>
                                    <rect id="Rectangle-path" fill="#262E33" fill-rule="nonzero" x="0" y="0" width="264" height="110"></rect>
                                </g>
                            </g>
                        </g>
                    </g>
                    <g id="Shadowy-Clipped">
                        <mask id="mask-8" fill="white">
                            <use xlink:href="#path-7"></use>
                        </mask>
                        <g id="react-path-193"></g>
                        <g id="Shadowy" opacity="0.599999964" mask="url(#mask-8)" fill-opacity="0.16">
                            <g transform="translate(60.000000, -25.000000)" id="Hola-ðŸ‘‹ðŸ¼">
                                <g>
                                    <ellipse id="Oval" fill="#000000" fill-rule="nonzero" cx="40.5" cy="27.8476251" rx="39.6351047" ry="26.9138272"></ellipse>
                                </g>
                            </g>
                        </g>
                    </g>
                </g>
                <g id="Blazer" fill-rule="nonzero">
                    <path d="M68.784807,1.12222847 C30.512317,2.80409739 -1.89486556e-14,34.3646437 -1.42108547e-14,73.0517235 L-1.42108547e-14,82 L69.3616767,82 C65.9607412,69.9199941 64,55.7087296 64,40.5 C64,26.1729736 65.7399891,12.7311115 68.784807,1.12222847 Z M131.638323,82 L200,82 L200,73.0517235 C200,34.7067641 170.024954,3.36285166 132.228719,1.17384225 C135.265163,12.7709464 137,26.1942016 137,40.5 C137,55.7087296 135.039259,69.9199941 131.638323,82 Z" id="Saco" fill="#2874AE"></path>
                    <path d="M149,58 L158.555853,50.83311 C159.998897,49.7508275 161.987779,49.7682725 163.411616,50.8757011 L170,56 L149,58 Z" id="Pocket-hanky" fill="#E6E6E6"></path>
                    <path d="M69,1.13686838e-13 C65,19.3333333 66.6666667,46.6666667 74,82 L58,82 L44,46 L50,37 L44,31 L63,1 C65.027659,0.369238637 67.027659,0.0359053037 69,1.13686838e-13 Z" id="Wing" fill="#1D6398"></path>
                    <path d="M151,1.13686838e-13 C147,19.3333333 148.666667,46.6666667 156,82 L140,82 L126,46 L132,37 L126,31 L145,1 C147.027659,0.369238637 149.027659,0.0359053037 151,1.13686838e-13 Z" id="Wing" fill="#1D6398" transform="translate(141.000000, 41.000000) scale(-1, 1) translate(-141.000000, -41.000000) "></path>
                </g>
            </g>
            <g id="Face" transform="translate(87.000000, 86.000000)" fill="#000000" fill-rule="nonzero">
                <g id="Mouth/Serious" transform="translate(33.000000, 66.000000)" fill-opacity="0.699999988">
                    <rect id="Why-so-serious?" x="0" y="0" width="24" height="6" rx="3"></rect>
                </g>
                <g id="Nose/Default" transform="translate(33.000000, 44.000000)" fill-opacity="0.16">
                    <path d="M0,0 C0,4.418278 5.372583,8 12,8 C18.627417,8 24,4.418278 24,0" id="Nose"></path>
                </g>
                <g id="Eyes/Default-ðŸ˜€" transform="translate(13.000000, 20.000000)" fill-opacity="0.599999964">
                    <circle id="Eye" cx="6" cy="6" r="6"></circle>
                    <circle id="Eye" cx="58" cy="6" r="6"></circle>
                </g>
                <g id="Eyebrow/Natural/Default-Natural" fill-opacity="0.599999964">
                    <path d="M15.0390934,2.21012364 C9.2775554,2.98346216 0.2929313,8.0052479 1.04426,13.8178111 C1.0689481,14.0080543 1.3567302,14.0673468 1.4809077,13.9084937 C3.9674041,10.7203351 23.1927973,6.0365481 30.1942673,7.0147151 C30.8350523,7.1044465 31.2580662,6.4430343 30.8210501,6.0302067 C27.0765663,2.49485426 20.2003792,1.51224825 15.0390934,2.21012364" id="Eyebrow" transform="translate(16.000000, 8.000000) rotate(5.000000) translate(-16.000000, -8.000000) "></path>
                    <path d="M74.0390936,2.21012363 C68.2775556,2.98346215 59.2929315,8.00524789 60.0442602,13.8178111 C60.0689483,14.0080543 60.3567304,14.0673468 60.4809079,13.9084937 C62.9674043,10.7203351 82.1927975,6.03654809 89.1942672,7.01471509 C89.8350522,7.10444649 90.2580662,6.44303429 89.8210502,6.03020669 C86.0765665,2.49485425 79.2003794,1.51224824 74.0390936,2.21012363" id="Eyebrow" transform="translate(75.000000, 8.000000) scale(-1, 1) rotate(5.000000) translate(-75.000000, -8.000000) "></path>
                </g>
            </g>
            <g id="Top">
                <g id="Top/Short-Hair/Short-Round-Clipped">
                    <mask id="mask-10" fill="white">
                        <use xlink:href="#path-9"></use>
                    </mask>
                    <g id="react-path-190"></g>
                    <g id="Top/Short-Hair/Short-Round" mask="url(#mask-10)">
                        <g transform="translate(73.000000, 26.000000)" id="Group">
                            <g>
                                <g id="Short-Hair" fill="#28354B">
                                    <path d="M93.308863,9.006118 C73.121091,-2.6934891 53.128954,-0.7780146 38.036894,3.0299707 C22.9448338,6.8379559 14.0168242,17.6513048 6.3566792,33.6480618 C2.5956048,41.5028569 0.3660182,50.7914798 0.0230569,59.4813651 C-0.1115571,62.8932666 0.3484305,66.415154 1.267729,69.7003546 C1.6049405,70.9061873 3.4232441,75.086987 3.9224658,71.70885 C4.0885348,70.584253 3.4804043,69.0327505 3.4215529,67.8376154 C3.3444374,66.2693977 3.4273028,64.6807875 3.5341822,63.1149098 C3.7340739,60.1874141 4.2559568,57.3154127 5.1847257,54.524647 C6.5119249,50.5367405 8.2013644,46.212859 10.7874413,42.8480942 C17.1883705,34.5205939 28.268658,34.045883 37.066257,29.4635848 C36.302881,30.8686624 33.359637,33.1432635 34.379389,34.7268592 C35.083576,35.8207003 37.749474,35.4890712 39.022219,35.4539693 C42.370996,35.3623702 45.734993,34.7796791 49.042844,34.306974 C54.255923,33.5618115 59.140585,32.0517626 64.046555,30.2181078 C68.06299,28.7164165 72.650012,27.3257139 75.66868,24.1404701 C80.539813,29.1881187 86.809849,33.9345599 93.070414,37.1428706 C98.68835,40.0222267 107.748751,41.461069 111.182761,47.3006826 C115.2479,54.2147477 113.37751,62.7073939 114.619138,70.2008069 C115.091302,73.05041 116.164155,72.986558 116.751315,70.4378281 C117.748406,66.1082634 118.219217,61.6102098 117.901961,57.1592929 C117.183568,47.1114668 113.496636,20.7057251 93.308863,9.006118 Z" id="react-path-189"></path>
                                </g>
                                <g id="Skin/ðŸ‘¶ðŸ½-03-Brown-Clipped">
                                    <mask id="mask-12" fill="white">
                                        <use xlink:href="#path-11"></use>
                                    </mask>
                                    <g id="react-path-189"></g>
                                    <g id="Skin/ðŸ‘¶ðŸ½-03-Brown" mask="url(#mask-12)">
                                        <g transform="translate(-74.000000, -26.000000)" id="Color">
                                            <g>
                                                <rect id="Rectangle-path" fill="#2C1B18" fill-rule="nonzero" x="0" y="0" width="264" height="280"></rect>
                                            </g>
                                        </g>
                                    </g>
                                </g>
                            </g>
                        </g>
                    </g>
                </g>
            </g>
        </g>
    </g>
</svg>